<svg width="400" height="400" viewBox="0 0 400 400" fill="none" xmlns="http://www.w3.org/2000/svg">
  <!-- Background Circle with Gradient -->
  <defs>
    <linearGradient id="bgGradient" x1="0%" y1="0%" x2="100%" y2="100%">
      <stop offset="0%" style="stop-color:#00d4ff;stop-opacity:0.1" />
      <stop offset="100%" style="stop-color:#7c3aed;stop-opacity:0.1" />
    </linearGradient>
    
    <linearGradient id="primaryGradient" x1="0%" y1="0%" x2="100%" y2="100%">
      <stop offset="0%" style="stop-color:#00d4ff" />
      <stop offset="100%" style="stop-color:#7c3aed" />
    </linearGradient>
    
    <linearGradient id="secondaryGradient" x1="0%" y1="0%" x2="100%" y2="100%">
      <stop offset="0%" style="stop-color:#ff006e" />
      <stop offset="100%" style="stop-color:#fb5607" />
    </linearGradient>
    
    <filter id="glow">
      <feGaussianBlur stdDeviation="4" result="coloredBlur"/>
      <feMerge> 
        <feMergeNode in="coloredBlur"/>
        <feMergeNode in="SourceGraphic"/>
      </feMerge>
    </filter>
    
    <filter id="shadow">
      <feDropShadow dx="0" dy="10" stdDeviation="10" flood-color="#000" flood-opacity="0.3"/>
    </filter>
  </defs>

  <!-- Background Circle -->
  <circle cx="200" cy="200" r="180" fill="url(#bgGradient)" stroke="rgba(255,255,255,0.1)" stroke-width="2"/>
  
  <!-- AI Core/Brain -->
  <g filter="url(#glow)">
    <!-- Central Core -->
    <circle cx="200" cy="200" r="60" fill="url(#primaryGradient)" opacity="0.8"/>
    <circle cx="200" cy="200" r="45" fill="none" stroke="rgba(255,255,255,0.3)" stroke-width="2"/>
    <circle cx="200" cy="200" r="30" fill="none" stroke="rgba(255,255,255,0.5)" stroke-width="1"/>
    
    <!-- Neural Network Lines -->
    <g stroke="url(#primaryGradient)" stroke-width="2" fill="none" opacity="0.7">
      <!-- Top connections -->
      <path d="M200 140 L240 100 M200 140 L160 100 M200 140 L200 80"/>
      <path d="M200 140 L270 120 M200 140 L130 120"/>
      
      <!-- Bottom connections -->
      <path d="M200 260 L240 300 M200 260 L160 300 M200 260 L200 320"/>
      <path d="M200 260 L270 280 M200 260 L130 280"/>
      
      <!-- Side connections -->
      <path d="M140 200 L80 200 M140 200 L100 160 M140 200 L100 240"/>
      <path d="M260 200 L320 200 M260 200 L300 160 M260 200 L300 240"/>
    </g>
  </g>
  
  <!-- Neural Nodes -->
  <g fill="url(#primaryGradient)" filter="url(#glow)">
    <!-- Top nodes -->
    <circle cx="240" cy="100" r="8"/>
    <circle cx="160" cy="100" r="8"/>
    <circle cx="200" cy="80" r="6"/>
    <circle cx="270" cy="120" r="6"/>
    <circle cx="130" cy="120" r="6"/>
    
    <!-- Bottom nodes -->
    <circle cx="240" cy="300" r="8"/>
    <circle cx="160" cy="300" r="8"/>
    <circle cx="200" cy="320" r="6"/>
    <circle cx="270" cy="280" r="6"/>
    <circle cx="130" cy="280" r="6"/>
    
    <!-- Side nodes -->
    <circle cx="80" cy="200" r="8"/>
    <circle cx="100" cy="160" r="6"/>
    <circle cx="100" cy="240" r="6"/>
    <circle cx="320" cy="200" r="8"/>
    <circle cx="300" cy="160" r="6"/>
    <circle cx="300" cy="240" r="6"/>
  </g>
  
  <!-- Data Flow Particles -->
  <g fill="rgba(0,212,255,0.8)">
    <circle cx="180" cy="120" r="3">
      <animateMotion dur="3s" repeatCount="indefinite">
        <path d="M0,0 Q20,-20 40,0 Q60,20 80,0"/>
      </animateMotion>
    </circle>
    <circle cx="220" cy="280" r="3">
      <animateMotion dur="4s" repeatCount="indefinite">
        <path d="M0,0 Q-20,20 -40,0 Q-60,-20 -80,0"/>
      </animateMotion>
    </circle>
    <circle cx="120" cy="180" r="3">
      <animateMotion dur="3.5s" repeatCount="indefinite">
        <path d="M0,0 Q20,20 40,0 Q60,-20 80,0"/>
      </animateMotion>
    </circle>
  </g>
  
  <!-- AI Eyes/Interface -->
  <g filter="url(#glow)">
    <!-- Left Eye -->
    <ellipse cx="175" cy="185" rx="15" ry="10" fill="url(#primaryGradient)"/>
    <ellipse cx="175" cy="185" rx="8" ry="6" fill="rgba(255,255,255,0.9)"/>
    <circle cx="177" cy="183" r="3" fill="url(#primaryGradient)"/>
    
    <!-- Right Eye -->
    <ellipse cx="225" cy="185" rx="15" ry="10" fill="url(#primaryGradient)"/>
    <ellipse cx="225" cy="185" rx="8" ry="6" fill="rgba(255,255,255,0.9)"/>
    <circle cx="223" cy="183" r="3" fill="url(#primaryGradient)"/>
    
    <!-- Scanning Lines -->
    <rect x="160" y="183" width="80" height="1" fill="url(#primaryGradient)" opacity="0.5">
      <animate attributeName="opacity" values="0.5;1;0.5" dur="2s" repeatCount="indefinite"/>
    </rect>
  </g>
  
  <!-- Voice/Sound Waves -->
  <g stroke="url(#secondaryGradient)" stroke-width="2" fill="none" opacity="0.6">
    <ellipse cx="200" cy="220" rx="20" ry="8">
      <animate attributeName="rx" values="20;30;20" dur="2s" repeatCount="indefinite"/>
      <animate attributeName="opacity" values="0.6;0.3;0.6" dur="2s" repeatCount="indefinite"/>
    </ellipse>
    <ellipse cx="200" cy="220" rx="30" ry="12">
      <animate attributeName="rx" values="30;40;30" dur="2s" repeatCount="indefinite" begin="0.5s"/>
      <animate attributeName="opacity" values="0.4;0.2;0.4" dur="2s" repeatCount="indefinite" begin="0.5s"/>
    </ellipse>
    <ellipse cx="200" cy="220" rx="40" ry="16">
      <animate attributeName="rx" values="40;50;40" dur="2s" repeatCount="indefinite" begin="1s"/>
      <animate attributeName="opacity" values="0.3;0.1;0.3" dur="2s" repeatCount="indefinite" begin="1s"/>
    </ellipse>
  </g>
  
  <!-- Orbiting Data Points -->
  <g fill="rgba(124,58,237,0.8)">
    <circle cx="260" cy="140" r="4">
      <animateTransform
        attributeName="transform"
        attributeType="XML"
        type="rotate"
        from="0 200 200"
        to="360 200 200"
        dur="8s"
        repeatCount="indefinite"/>
    </circle>
    <circle cx="140" cy="260" r="4">
      <animateTransform
        attributeName="transform"
        attributeType="XML"
        type="rotate"
        from="0 200 200"
        to="360 200 200"
        dur="10s"
        repeatCount="indefinite"/>
    </circle>
    <circle cx="340" cy="200" r="3">
      <animateTransform
        attributeName="transform"
        attributeType="XML"
        type="rotate"
        from="0 200 200"
        to="360 200 200"
        dur="12s"
        repeatCount="indefinite"/>
    </circle>
  </g>
  
  <!-- Holographic Interface Elements -->
  <g stroke="rgba(0,212,255,0.4)" stroke-width="1" fill="none">
    <!-- Top Interface -->
    <rect x="150" y="50" width="100" height="15" rx="7"/>
    <rect x="155" y="52" width="30" height="3" rx="1" fill="url(#primaryGradient)"/>
    <rect x="190" y="52" width="50" height="3" rx="1" fill="rgba(0,212,255,0.3)"/>
    
    <!-- Side Interface -->
    <rect x="50" y="150" width="15" height="100" rx="7"/>
    <rect x="52" y="155" width="3" height="30" rx="1" fill="url(#secondaryGradient)"/>
    <rect x="52" y="190" width="3" height="50" rx="1" fill="rgba(255,0,110,0.3)"/>
    
    <!-- Bottom Interface -->
    <rect x="150" y="335" width="100" height="15" rx="7"/>
    <rect x="215" y="337" width="30" height="3" rx="1" fill="url(#primaryGradient)"/>
    <rect x="155" y="337" width="55" height="3" rx="1" fill="rgba(0,212,255,0.3)"/>
  </g>
  
  <!-- Central Pulse Animation -->
  <circle cx="200" cy="200" r="70" fill="none" stroke="url(#primaryGradient)" stroke-width="2" opacity="0">
    <animate attributeName="r" values="60;90;60" dur="4s" repeatCount="indefinite"/>
    <animate attributeName="opacity" values="0;0.5;0" dur="4s" repeatCount="indefinite"/>
  </circle>
</svg>
